<svg width="106" height="106" viewBox="0 0 106 106" fill="none" xmlns="http://www.w3.org/2000/svg">
<g id="C0_0">
<g id="Background" filter="url(#filter0_ii_1_78)">
<circle cx="53" cy="53" r="50" fill="white"/>
</g>
<g id="Big Time Indicator">
<rect id="Rectangle 1" x="52" y="3" width="2" height="4" fill="black" fill-opacity="0.5"/>
<rect id="Rectangle 2" x="52" y="99" width="2" height="4" fill="black" fill-opacity="0.5"/>
<rect id="Rectangle 3" x="103" y="52" width="2" height="4" transform="rotate(90 103 52)" fill="black" fill-opacity="0.5"/>
<rect id="Rectangle 4" x="7" y="52" width="2" height="4" transform="rotate(90 7 52)" fill="black" fill-opacity="0.5"/>
<rect id="Rectangle 5" x="95.8013" y="27.134" width="2" height="4" transform="rotate(60 95.8013 27.134)" fill="black" fill-opacity="0.5"/>
<rect id="Rectangle 6" x="12.6628" y="75.134" width="2" height="4" transform="rotate(60 12.6628 75.134)" fill="black" fill-opacity="0.5"/>
<rect id="Rectangle 7" x="77.134" y="9.19873" width="2" height="4" transform="rotate(30 77.134 9.19873)" fill="black" fill-opacity="0.5"/>
<rect id="Rectangle 8" x="29.134" y="92.3372" width="2" height="4" transform="rotate(30 29.134 92.3372)" fill="black" fill-opacity="0.5"/>
<rect id="Rectangle 9" x="27.134" y="10.1987" width="2" height="4" transform="rotate(-30 27.134 10.1987)" fill="black" fill-opacity="0.5"/>
<rect id="Rectangle 10" x="75.134" y="93.3372" width="2" height="4" transform="rotate(-30 75.134 93.3372)" fill="black" fill-opacity="0.5"/>
<rect id="Rectangle 11" x="9.19872" y="28.866" width="2" height="4" transform="rotate(-60 9.19872 28.866)" fill="black" fill-opacity="0.5"/>
<rect id="Rectangle 12" x="92.3372" y="76.866" width="2" height="4" transform="rotate(-60 92.3372 76.866)" fill="black" fill-opacity="0.5"/>
</g>
<g id="Small Time Idicator">
<rect id="Rectangle 13" x="57.7375" y="3.22243" width="1" height="2" transform="rotate(6.00955 57.7375 3.22243)" fill="black" fill-opacity="0.25"/>
<rect id="Rectangle 14" x="47.4774" y="100.684" width="1" height="2" transform="rotate(6.00955 47.4774 100.684)" fill="black" fill-opacity="0.25"/>
<rect id="Rectangle 15" x="62.9126" y="3.98989" width="1" height="2" transform="rotate(12.0071 62.9126 3.98989)" fill="black" fill-opacity="0.25"/>
<rect id="Rectangle 16" x="42.5254" y="99.8458" width="1" height="2" transform="rotate(12.0071 42.5254 99.8458)" fill="black" fill-opacity="0.25"/>
<rect id="Rectangle 17" x="67.9877" y="5.29654" width="1" height="2" transform="rotate(18.0148 67.9877 5.29654)" fill="black" fill-opacity="0.25"/>
<rect id="Rectangle 18" x="37.6799" y="98.4922" width="1" height="2" transform="rotate(18.0148 37.6799 98.4922)" fill="black" fill-opacity="0.25"/>
<rect id="Rectangle 19" x="72.8781" y="7.11853" width="1" height="2" transform="rotate(23.9976 72.8781 7.11853)" fill="black" fill-opacity="0.25"/>
<rect id="Rectangle 20" x="33.0217" y="96.6476" width="1" height="2" transform="rotate(23.9976 33.0217 96.6476)" fill="black" fill-opacity="0.25"/>
<rect id="Rectangle 21" x="81.9915" y="12.2601" width="1" height="2" transform="rotate(36.0095 81.9915 12.2601)" fill="black" fill-opacity="0.25"/>
<rect id="Rectangle 22" x="24.3754" y="91.5342" width="1" height="2" transform="rotate(36.0095 24.3754 91.5342)" fill="black" fill-opacity="0.25"/>
<rect id="Rectangle 23" x="86.0896" y="15.5123" width="1" height="2" transform="rotate(42.0071 86.0896 15.5123)" fill="black" fill-opacity="0.25"/>
<rect id="Rectangle 24" x="20.5058" y="88.3324" width="1" height="2" transform="rotate(42.0071 20.5058 88.3324)" fill="black" fill-opacity="0.25"/>
<rect id="Rectangle 25" x="89.8314" y="19.1814" width="1" height="2" transform="rotate(48.0148 89.8314 19.1814)" fill="black" fill-opacity="0.25"/>
<rect id="Rectangle 26" x="16.9863" y="84.7374" width="1" height="2" transform="rotate(48.0148 16.9863 84.7374)" fill="black" fill-opacity="0.25"/>
<rect id="Rectangle 27" x="93.1557" y="23.2046" width="1" height="2" transform="rotate(53.9976 93.1557 23.2046)" fill="black" fill-opacity="0.25"/>
<rect id="Rectangle 28" x="13.8745" y="80.8108" width="1" height="2" transform="rotate(53.9976 13.8745 80.8108)" fill="black" fill-opacity="0.25"/>
<rect id="Rectangle 29" x="98.4774" y="32.214" width="1" height="2" transform="rotate(66.0095 98.4774 32.214)" fill="black" fill-opacity="0.25"/>
<rect id="Rectangle 30" x="8.94327" y="72.0592" width="1" height="2" transform="rotate(66.0095 8.94327 72.0592)" fill="black" fill-opacity="0.25"/>
<rect id="Rectangle 31" x="100.4" y="37.0795" width="1" height="2" transform="rotate(72.0071 100.4 37.0795)" fill="black" fill-opacity="0.25"/>
<rect id="Rectangle 32" x="7.193" y="67.3516" width="1" height="2" transform="rotate(72.0071 7.193 67.3516)" fill="black" fill-opacity="0.25"/>
<rect id="Rectangle 33" x="101.806" y="42.128" width="1" height="2" transform="rotate(78.0148 101.806 42.128)" fill="black" fill-opacity="0.25"/>
<rect id="Rectangle 34" x="5.94251" y="62.4785" width="1" height="2" transform="rotate(78.0148 5.94251 62.4785)" fill="black" fill-opacity="0.25"/>
<rect id="Rectangle 35" x="102.674" y="47.2742" width="1" height="2" transform="rotate(83.9976 102.674 47.2742)" fill="black" fill-opacity="0.25"/>
<rect id="Rectangle 36" x="5.21088" y="57.5221" width="1" height="2" transform="rotate(83.9976 5.21088 57.5221)" fill="black" fill-opacity="0.25"/>
<rect id="Rectangle 37" x="102.778" y="57.7375" width="1" height="2" transform="rotate(96.0096 102.778 57.7375)" fill="black" fill-opacity="0.25"/>
<rect id="Rectangle 38" x="5.31613" y="47.4774" width="1" height="2" transform="rotate(96.0096 5.31613 47.4774)" fill="black" fill-opacity="0.25"/>
<rect id="Rectangle 39" x="102.01" y="62.9126" width="1" height="2" transform="rotate(102.007 102.01 62.9126)" fill="black" fill-opacity="0.25"/>
<rect id="Rectangle 40" x="6.15417" y="42.5254" width="1" height="2" transform="rotate(102.007 6.15417 42.5254)" fill="black" fill-opacity="0.25"/>
<rect id="Rectangle 41" x="100.703" y="67.9877" width="1" height="2" transform="rotate(108.015 100.703 67.9877)" fill="black" fill-opacity="0.25"/>
<rect id="Rectangle 42" x="7.50776" y="37.6799" width="1" height="2" transform="rotate(108.015 7.50776 37.6799)" fill="black" fill-opacity="0.25"/>
<rect id="Rectangle 43" x="98.8815" y="72.8781" width="1" height="2" transform="rotate(113.998 98.8815 72.8781)" fill="black" fill-opacity="0.25"/>
<rect id="Rectangle 44" x="9.35236" y="33.0217" width="1" height="2" transform="rotate(113.998 9.35236 33.0217)" fill="black" fill-opacity="0.25"/>
<rect id="Rectangle 45" x="93.7399" y="81.9915" width="1" height="2" transform="rotate(126.01 93.7399 81.9915)" fill="black" fill-opacity="0.25"/>
<rect id="Rectangle 46" x="14.4658" y="24.3754" width="1" height="2" transform="rotate(126.01 14.4658 24.3754)" fill="black" fill-opacity="0.25"/>
<rect id="Rectangle 47" x="90.4877" y="86.0896" width="1" height="2" transform="rotate(132.007 90.4877 86.0896)" fill="black" fill-opacity="0.25"/>
<rect id="Rectangle 48" x="17.6676" y="20.5058" width="1" height="2" transform="rotate(132.007 17.6676 20.5058)" fill="black" fill-opacity="0.25"/>
<rect id="Rectangle 49" x="86.8186" y="89.8314" width="1" height="2" transform="rotate(138.015 86.8186 89.8314)" fill="black" fill-opacity="0.25"/>
<rect id="Rectangle 50" x="21.2626" y="16.9863" width="1" height="2" transform="rotate(138.015 21.2626 16.9863)" fill="black" fill-opacity="0.25"/>
<rect id="Rectangle 51" x="82.7954" y="93.1557" width="1" height="2" transform="rotate(143.998 82.7954 93.1557)" fill="black" fill-opacity="0.25"/>
<rect id="Rectangle 52" x="25.1892" y="13.8745" width="1" height="2" transform="rotate(143.998 25.1892 13.8745)" fill="black" fill-opacity="0.25"/>
<rect id="Rectangle 53" x="73.786" y="98.4774" width="1" height="2" transform="rotate(156.01 73.786 98.4774)" fill="black" fill-opacity="0.25"/>
<rect id="Rectangle 54" x="33.9408" y="8.94327" width="1" height="2" transform="rotate(156.01 33.9408 8.94327)" fill="black" fill-opacity="0.25"/>
<rect id="Rectangle 55" x="68.9205" y="100.4" width="1" height="2" transform="rotate(162.007 68.9205 100.4)" fill="black" fill-opacity="0.25"/>
<rect id="Rectangle 56" x="38.6484" y="7.193" width="1" height="2" transform="rotate(162.007 38.6484 7.193)" fill="black" fill-opacity="0.25"/>
<rect id="Rectangle 57" x="63.872" y="101.806" width="1" height="2" transform="rotate(168.015 63.872 101.806)" fill="black" fill-opacity="0.25"/>
<rect id="Rectangle 58" x="43.5215" y="5.94251" width="1" height="2" transform="rotate(168.015 43.5215 5.94251)" fill="black" fill-opacity="0.25"/>
<rect id="Rectangle 59" x="58.7258" y="102.674" width="1" height="2" transform="rotate(173.998 58.7258 102.674)" fill="black" fill-opacity="0.25"/>
<rect id="Rectangle 60" x="48.4779" y="5.21088" width="1" height="2" transform="rotate(173.998 48.4779 5.21088)" fill="black" fill-opacity="0.25"/>
</g>
<path id="Border" d="M106 53C106 82.2711 82.2711 106 53 106C23.7289 106 0 82.2711 0 53C0 23.7289 23.7289 0 53 0C82.2711 0 106 23.7289 106 53ZM2.99931 53C2.99931 80.6146 25.3854 103.001 53 103.001C80.6146 103.001 103.001 80.6146 103.001 53C103.001 25.3854 80.6146 2.99931 53 2.99931C25.3854 2.99931 2.99931 25.3854 2.99931 53Z" fill="white"/>
<circle id="Middel" cx="53" cy="53" r="3" fill="black"/>
<path id="C0_0_M" d="M53 10L53 96" stroke="url(#paint0_linear_1_78)" stroke-width="6" stroke-linecap="round"/>
<path id="C0_0_H" d="M53 15L53 91" stroke="url(#paint1_linear_1_78)" stroke-width="6" stroke-linecap="round"/>
</g>
<defs>
<filter id="filter0_ii_1_78" x="3" y="1" width="100" height="106" filterUnits="userSpaceOnUse" color-interpolation-filters="sRGB">
<feFlood flood-opacity="0" result="BackgroundImageFix"/>
<feBlend mode="normal" in="SourceGraphic" in2="BackgroundImageFix" result="shape"/>
<feColorMatrix in="SourceAlpha" type="matrix" values="0 0 0 0 0 0 0 0 0 0 0 0 0 0 0 0 0 0 127 0" result="hardAlpha"/>
<feOffset dy="-2"/>
<feGaussianBlur stdDeviation="2"/>
<feComposite in2="hardAlpha" operator="arithmetic" k2="-1" k3="1"/>
<feColorMatrix type="matrix" values="0 0 0 0 0 0 0 0 0 0 0 0 0 0 0 0 0 0 0.25 0"/>
<feBlend mode="normal" in2="shape" result="effect1_innerShadow_1_78"/>
<feColorMatrix in="SourceAlpha" type="matrix" values="0 0 0 0 0 0 0 0 0 0 0 0 0 0 0 0 0 0 127 0" result="hardAlpha"/>
<feOffset dy="4"/>
<feGaussianBlur stdDeviation="2"/>
<feComposite in2="hardAlpha" operator="arithmetic" k2="-1" k3="1"/>
<feColorMatrix type="matrix" values="0 0 0 0 0 0 0 0 0 0 0 0 0 0 0 0 0 0 0.25 0"/>
<feBlend mode="normal" in2="effect1_innerShadow_1_78" result="effect2_innerShadow_1_78"/>
</filter>
<linearGradient id="paint0_linear_1_78" x1="52.9983" y1="10.072" x2="52.9984" y2="96.072" gradientUnits="userSpaceOnUse">
<stop/>
<stop offset="0.5"/>
<stop offset="0.5001" stop-opacity="0"/>
</linearGradient>
<linearGradient id="paint1_linear_1_78" x1="52.9983" y1="15.0636" x2="52.9984" y2="91.0636" gradientUnits="userSpaceOnUse">
<stop/>
<stop offset="0.5"/>
<stop offset="0.5001" stop-opacity="0"/>
</linearGradient>
</defs>
</svg>
